<?xml version="1.0" encoding="UTF-8" standalone="no"?>
<!-- Created with sK1/UniConvertor (http://sk1project.org/) -->

<svg
   width="478pt"
   height="546pt"
   viewBox="0 298 478 546"
   fill-rule="evenodd"
   version="1.1"
   id="svg49"
   sodipodi:docname="LOGO.svg"
   inkscape:version="1.4.4 (dcaf3e7, 2026-05-05)"
   xmlns:inkscape="http://www.inkscape.org/namespaces/inkscape"
   xmlns:sodipodi="http://sodipodi.sourceforge.net/DTD/sodipodi-0.dtd"
   xmlns="http://www.w3.org/2000/svg"
   xmlns:svg="http://www.w3.org/2000/svg">
  <defs
     id="defs49" />
  <sodipodi:namedview
     id="namedview49"
     pagecolor="#ffffff"
     bordercolor="#000000"
     borderopacity="0.25"
     inkscape:showpageshadow="2"
     inkscape:pageopacity="0.0"
     inkscape:pagecheckerboard="0"
     inkscape:deskcolor="#d1d1d1"
     inkscape:document-units="pt"
     inkscape:zoom="64"
     inkscape:cx="319.39844"
     inkscape:cy="719.27344"
     inkscape:window-width="1920"
     inkscape:window-height="974"
     inkscape:window-x="-11"
     inkscape:window-y="967"
     inkscape:window-maximized="1"
     inkscape:current-layer="g50" />
  <g
     id="g49">
    <g
       id="g50"
       style="fill:#69bc9f;fill-opacity:1;stroke:#69bc9f;stroke-opacity:1">
      <path
         style="fill:#69bc9f;fill-opacity:1;stroke:#69bc9f;stroke-width:0.850394;stroke-linecap:round;stroke-linejoin:round;stroke-opacity:1"
         d="m 273.314,747.114 c -1.255,0.727 -2.1,2.084 -2.1,3.638 0,1.553 0.845,2.911 2.1,3.637"
         id="path1" />
      <path
         style="fill:#69bc9f;fill-opacity:1;stroke:#69bc9f;stroke-width:0.850394;stroke-linecap:round;stroke-linejoin:round;stroke-opacity:1"
         d="m 321.614,724.078 c -1.235,-0.715 -2.67,-1.125 -4.2,-1.125 -1.53,0 -2.964,0.41 -4.2,1.125"
         id="path2" />
      <path
         style="fill:#69bc9f;fill-opacity:1;stroke:#69bc9f;stroke-width:0.850394;stroke-linecap:round;stroke-linejoin:round;stroke-opacity:1"
         d="m 465.047,814.164 c 1.255,-0.727 2.1,-2.084 2.1,-3.638 0,-1.553 -0.845,-2.91 -2.1,-3.637"
         id="path3" />
      <path
         style="fill:#69bc9f;fill-opacity:1;stroke:#69bc9f;stroke-width:0.850394;stroke-linecap:round;stroke-linejoin:round;stroke-opacity:1"
         d="m 416.747,837.2 c 1.235,0.716 2.67,1.125 4.2,1.125 1.53,0 2.964,-0.409 4.2,-1.125"
         id="path4" />
      <path
         style="fill:#69bc9f;fill-opacity:1;stroke:#69bc9f;stroke-width:0.850394;stroke-linecap:round;stroke-linejoin:round;stroke-opacity:1"
         d="M 273.314,754.389 416.747,837.2"
         id="path5" />
      <path
         style="fill:#69bc9f;fill-opacity:1;stroke:#69bc9f;stroke-width:0.850394;stroke-linecap:round;stroke-linejoin:round;stroke-opacity:1"
         d="m 425.147,837.2 39.9,-23.036"
         id="path6" />
      <path
         style="fill:#69bc9f;fill-opacity:1;stroke:#69bc9f;stroke-width:0.850394;stroke-linecap:round;stroke-linejoin:round;stroke-opacity:1"
         d="m 321.614,724.078 143.433,82.811"
         id="path7" />
      <path
         style="fill:#69bc9f;fill-opacity:1;stroke:#69bc9f;stroke-width:0.850394;stroke-linecap:round;stroke-linejoin:round;stroke-opacity:1"
         d="m 273.314,747.115 39.9,-23.037"
         id="path8" />
      <path
         style="fill:#013e3c;fill-opacity:1;stroke:#013e3c;stroke-width:2;stroke-linecap:round;stroke-linejoin:round;stroke-dasharray:none;stroke-opacity:1"
         d="m 234.881,837.2 c 1.236,0.716 2.671,1.125 4.2,1.125 1.53,0 2.965,-0.409 4.201,-1.125"
         id="path9" />
    </g>
    <g
       id="g51"
       style="fill:#013e3c;fill-opacity:1;stroke:#013e3c;stroke-width:2;stroke-dasharray:none;stroke-opacity:1">
      <path
         style="fill:#013e3c;fill-opacity:1;stroke:#013e3c;stroke-width:2;stroke-linecap:round;stroke-linejoin:round;stroke-dasharray:none;stroke-opacity:1"
         d="M 11.0161,707.951 234.881,837.2"
         id="path10" />
      <path
         style="fill:#013e3c;fill-opacity:1;stroke:#013e3c;stroke-width:2;stroke-linecap:round;stroke-linejoin:round;stroke-dasharray:none;stroke-opacity:1"
         d="m 6.81611,700.677 c 0,3.107 1.68978,5.821 4.19979,7.275"
         id="path11" />
      <path
         style="fill:#013e3c;fill-opacity:1;stroke:#013e3c;stroke-width:2;stroke-linecap:round;stroke-linejoin:round;stroke-dasharray:none;stroke-opacity:1"
         d="M 6.81611,442.179 V 700.677"
         id="path12" />
      <path
         style="fill:#013e3c;fill-opacity:1;stroke:#013e3c;stroke-width:2;stroke-linecap:round;stroke-linejoin:round;stroke-dasharray:none;stroke-opacity:1"
         d="m 11.0159,434.904 c -2.51001,1.454 -4.19979,4.168 -4.19979,7.275"
         id="path13" />
      <path
         style="fill:#013e3c;fill-opacity:1;stroke:#013e3c;stroke-width:2;stroke-linecap:round;stroke-linejoin:round;stroke-dasharray:none;stroke-opacity:1"
         d="m 243.282,305.656 c -1.236,-0.716 -2.671,-1.125 -4.201,-1.125 -1.529,0 -2.964,0.409 -4.2,1.125"
         id="path14" />
      <path
         style="fill:#013e3c;fill-opacity:1;stroke:#013e3c;stroke-width:2;stroke-linecap:round;stroke-linejoin:round;stroke-dasharray:none;stroke-opacity:1"
         d="m 471.347,442.179 c 0,-3.107 -1.69,-5.821 -4.2,-7.275"
         id="path15" />
      <path
         style="fill:#013e3c;fill-opacity:1;stroke:#013e3c;stroke-width:2;stroke-linecap:round;stroke-linejoin:round;stroke-dasharray:none;stroke-opacity:1"
         d="m 467.147,707.952 c 2.51,-1.454 4.2,-4.168 4.2,-7.275"
         id="path16" />
      <path
         style="fill:#013e3c;fill-opacity:1;stroke:#013e3c;stroke-width:2;stroke-linecap:round;stroke-linejoin:round;stroke-dasharray:none;stroke-opacity:1"
         d="m 393.014,750.752 74.133,-42.801"
         id="path17" />
      <path
         style="fill:#013e3c;fill-opacity:1;stroke:#013e3c;stroke-width:2;stroke-linecap:round;stroke-linejoin:round;stroke-dasharray:none;stroke-opacity:1"
         d="m 384.614,750.752 c 1.236,0.716 2.67,1.125 4.2,1.125 1.53,0 2.965,-0.409 4.2,-1.125"
         id="path18" />
      <path
         style="fill:#013e3c;fill-opacity:1;stroke:#013e3c;stroke-width:2;stroke-linecap:round;stroke-linejoin:round;stroke-dasharray:none;stroke-opacity:1"
         d="m 344.714,727.716 39.9,23.036"
         id="path19" />
      <path
         style="fill:#013e3c;fill-opacity:1;stroke:#013e3c;stroke-width:2;stroke-linecap:round;stroke-linejoin:round;stroke-dasharray:none;stroke-opacity:1"
         d="m 344.714,720.441 c -1.255,0.726 -2.1,2.084 -2.1,3.637 0,1.554 0.845,2.911 2.1,3.638"
         id="path20" />
      <path
         style="fill:#013e3c;fill-opacity:1;stroke:#013e3c;stroke-width:2;stroke-linecap:round;stroke-linejoin:round;stroke-dasharray:none;stroke-opacity:1"
         d="m 344.714,720.441 72.033,-41.588"
         id="path21" />
      <path
         style="fill:#013e3c;fill-opacity:1;stroke:#013e3c;stroke-width:2;stroke-linecap:round;stroke-linejoin:round;stroke-dasharray:none;stroke-opacity:1"
         d="m 416.747,678.853 c 2.51,-1.453 4.2,-4.168 4.2,-7.275"
         id="path22" />
      <path
         style="fill:#013e3c;fill-opacity:1;stroke:#013e3c;stroke-width:2;stroke-linecap:round;stroke-linejoin:round;stroke-dasharray:none;stroke-opacity:1"
         d="m 420.947,671.578 v -200.3"
         id="path23" />
      <path
         style="fill:#013e3c;fill-opacity:1;stroke:#013e3c;stroke-width:2;stroke-linecap:round;stroke-linejoin:round;stroke-dasharray:none;stroke-opacity:1"
         d="m 420.947,471.278 c 0,-3.107 -1.69,-5.822 -4.2,-7.275"
         id="path24" />
      <path
         style="fill:#013e3c;fill-opacity:1;stroke:#013e3c;stroke-width:2;stroke-linecap:round;stroke-linejoin:round;stroke-dasharray:none;stroke-opacity:1"
         d="M 416.747,464.003 243.281,363.853"
         id="path25" />
      <path
         style="fill:#013e3c;fill-opacity:1;stroke:#013e3c;stroke-width:2;stroke-linecap:round;stroke-linejoin:round;stroke-dasharray:none;stroke-opacity:1"
         d="m 243.282,363.853 c -1.236,-0.716 -2.671,-1.125 -4.201,-1.125 -1.529,0 -2.964,0.409 -4.2,1.125"
         id="path26" />
      <path
         style="fill:#013e3c;fill-opacity:1;stroke:#013e3c;stroke-width:2;stroke-linecap:round;stroke-linejoin:round;stroke-dasharray:none;stroke-opacity:1"
         d="M 234.881,363.853 61.4161,464.003"
         id="path27" />
      <path
         style="fill:#013e3c;fill-opacity:1;stroke:#013e3c;stroke-width:2;stroke-linecap:round;stroke-linejoin:round;stroke-dasharray:none;stroke-opacity:1"
         d="m 61.4159,464.003 c -2.51,1.453 -4.1998,4.168 -4.1998,7.275"
         id="path28" />
      <path
         style="fill:#013e3c;fill-opacity:1;stroke:#013e3c;stroke-width:2;stroke-linecap:round;stroke-linejoin:round;stroke-dasharray:none;stroke-opacity:1"
         d="m 57.2161,471.278 v 200.3"
         id="path29" />
      <path
         style="fill:#013e3c;fill-opacity:1;stroke:#013e3c;stroke-width:2;stroke-linecap:round;stroke-linejoin:round;stroke-dasharray:none;stroke-opacity:1"
         d="m 57.2161,671.578 c 0,3.107 1.6898,5.822 4.1998,7.275"
         id="path30" />
      <path
         style="fill:#013e3c;fill-opacity:1;stroke:#013e3c;stroke-width:2;stroke-linecap:round;stroke-linejoin:round;stroke-dasharray:none;stroke-opacity:1"
         d="m 234.881,779.003 c 1.236,0.716 2.671,1.126 4.2,1.126 1.53,0 2.965,-0.41 4.201,-1.126"
         id="path31" />
      <path
         style="fill:#013e3c;fill-opacity:1;stroke:#013e3c;stroke-width:2;stroke-linecap:round;stroke-linejoin:round;stroke-dasharray:none;stroke-opacity:1"
         d="m 243.281,779.003 23.733,-13.702"
         id="path32" />
      <path
         style="fill:#013e3c;fill-opacity:1;stroke:#013e3c;stroke-width:2;stroke-linecap:round;stroke-linejoin:round;stroke-dasharray:none;stroke-opacity:1"
         d="m 275.414,765.301 c -1.236,-0.716 -2.67,-1.125 -4.2,-1.125 -1.53,0 -2.964,0.409 -4.2,1.125"
         id="path33" />
      <path
         style="fill:#013e3c;fill-opacity:1;stroke:#013e3c;stroke-width:2;stroke-linecap:round;stroke-linejoin:round;stroke-dasharray:none;stroke-opacity:1"
         d="m 275.414,765.301 39.9,23.036"
         id="path34" />
      <path
         style="fill:#013e3c;fill-opacity:1;stroke:#013e3c;stroke-width:2;stroke-linecap:round;stroke-linejoin:round;stroke-dasharray:none;stroke-opacity:1"
         d="m 315.314,795.612 c 1.255,-0.727 2.1,-2.084 2.1,-3.637 0,-1.554 -0.845,-2.911 -2.1,-3.638"
         id="path35" />
      <path
         style="fill:#013e3c;fill-opacity:1;stroke:#013e3c;stroke-width:2;stroke-linecap:round;stroke-linejoin:round;stroke-dasharray:none;stroke-opacity:1"
         d="m 243.281,837.2 72.033,-41.588"
         id="path36" />
      <path
         style="fill:#013e3c;fill-opacity:1;stroke:#013e3c;stroke-width:2;stroke-linecap:round;stroke-linejoin:round;stroke-dasharray:none;stroke-opacity:1"
         d="M 467.147,434.905 243.281,305.656"
         id="path37" />
      <path
         style="fill:#013e3c;fill-opacity:1;stroke:#013e3c;stroke-width:2;stroke-linecap:round;stroke-linejoin:round;stroke-dasharray:none;stroke-opacity:1"
         d="M 234.881,305.656 11.0161,434.905"
         id="path38" />
      <path
         style="fill:#013e3c;fill-opacity:1;stroke:#013e3c;stroke-width:2;stroke-linecap:round;stroke-linejoin:round;stroke-dasharray:none;stroke-opacity:1"
         d="M 471.347,700.677 V 442.179"
         id="path39" />
      <path
         style="fill:#013e3c;fill-opacity:1;stroke:#013e3c;stroke-width:2;stroke-linecap:round;stroke-linejoin:round;stroke-dasharray:none;stroke-opacity:1"
         d="M 61.4161,678.853 234.881,779.003"
         id="path40" />
    </g>
    <g
       id="g52"
       style="fill:#69bc9f;fill-opacity:1;stroke:#69bc9f;stroke-opacity:1">
      <path
         style="fill:#69bc9f;fill-opacity:1;stroke:#69bc9f;stroke-width:0.850394;stroke-linecap:round;stroke-linejoin:round;stroke-opacity:1"
         d="M 236.981,572.641 V 760.428"
         id="path41" />
      <path
         style="fill:#69bc9f;fill-opacity:1;stroke:#69bc9f;stroke-width:0.850394;stroke-linecap:round;stroke-linejoin:round;stroke-opacity:1"
         d="M 239.081,569.003 401.71,475.109"
         id="path42" />
      <path
         style="fill:#69bc9f;fill-opacity:1;stroke:#69bc9f;stroke-width:0.850394;stroke-linecap:round;stroke-linejoin:round;stroke-opacity:1"
         d="m 401.71,475.109 2.1,3.638"
         id="path43" />
      <path
         style="fill:#69bc9f;fill-opacity:1;stroke:#69bc9f;stroke-width:0.850394;stroke-linecap:round;stroke-linejoin:round;stroke-opacity:1"
         d="M 241.181,572.641 403.81,478.747"
         id="path44" />
      <path
         style="fill:#69bc9f;fill-opacity:1;stroke:#69bc9f;stroke-width:0.850394;stroke-linecap:round;stroke-linejoin:round;stroke-opacity:1"
         d="M 241.181,572.641 V 760.428"
         id="path45" />
      <path
         style="fill:#69bc9f;fill-opacity:1;stroke:#69bc9f;stroke-width:0.850394;stroke-linecap:round;stroke-linejoin:round;stroke-opacity:1"
         d="M 239.081,569.003 76.4526,475.109"
         id="path46" />
      <path
         style="fill:#69bc9f;fill-opacity:1;stroke:#69bc9f;stroke-width:0.850394;stroke-linecap:round;stroke-linejoin:round;stroke-opacity:1"
         d="m 74.3526,478.747 2.1,-3.638"
         id="path47" />
      <path
         style="fill:#69bc9f;fill-opacity:1;stroke:#69bc9f;stroke-width:0.850394;stroke-linecap:round;stroke-linejoin:round;stroke-opacity:1"
         d="M 236.981,572.641 74.3526,478.747"
         id="path48" />
      <path
         style="fill:#69bc9f;fill-opacity:1;stroke:#69bc9f;stroke-width:0.850394;stroke-linecap:round;stroke-linejoin:round;stroke-opacity:1"
         d="m 241.181,760.428 h -4.2"
         id="path49" />
    </g>
    <path
       style="fill:#013e3c;fill-opacity:1;stroke:#013e3c;stroke-width:0.763619;stroke-opacity:1"
       d="m 318.2979,407.21627 c -8.06041,2.6103 -15.00383,8.18073 -22.59908,11.97977 -94.12236,53.99366 -188.24835,107.98946 -281.925339,162.75178 -4.5167332,3.27146 -2.384645,10.10078 -3.288633,14.87715 -1.0679094,70.6102 -0.340007,141.23677 -0.5540929,211.85358 0.2402579,42.0995 -0.479486,84.22137 0.7077109,126.30588 0.146126,8.46452 10.081628,10.2664 15.635579,14.38165 95.434335,55.05542 190.734775,110.35302 286.322165,165.13702 4.3083,3.0606 9.83011,2.5337 13.86258,-0.7125 31.68235,-18.0621 63.32559,-36.2313 94.48622,-55.173 3.9783,-4.3467 -2.91009,-7.4953 -6.02576,-9.2546 -16.80645,-9.7791 -33.36635,-20.1065 -50.64761,-28.9949 -5.44182,-1.8303 -10.06989,3.4136 -14.85828,5.2043 -9.70674,5.1167 -18.9142,11.4864 -29.1557,15.4223 -7.17324,0.3762 -12.57879,-5.6166 -18.84042,-8.2874 C 229.4272,991.55202 157.40245,950.43824 86.082265,908.13016 c -4.533696,-2.97224 -11.892865,-5.5668 -10.10872,-12.40499 0.0526,-85.00285 -0.611826,-170.00882 -0.05763,-255.00968 0.683269,-6.81178 -0.810928,-14.47658 2.411713,-20.69857 56.122052,-33.2311 112.824642,-65.5333 169.247552,-98.27288 22.08244,-12.53228 43.83269,-25.69436 66.15741,-37.77361 9.09895,-3.82482 16.78877,4.31597 24.39272,7.92764 72.91561,42.05504 145.9246,83.9657 218.62159,126.38877 6.70778,3.92343 4.35361,12.47763 4.99512,18.87416 0.41862,87.71411 -0.10354,175.4308 -0.1002,263.14587 -4.86132,6.53002 -13.21437,9.25491 -19.74021,13.8441 -27.50405,16.40031 -55.6761,31.77646 -82.93225,48.52807 -2.37392,3.58968 0.57733,7.2988 4.17723,8.29087 17.62184,10.01794 34.73518,21.07594 52.9719,29.93039 5.85517,1.3699 10.75256,-4.10481 15.92116,-6.04486 30.90617,-17.45012 61.81989,-34.94617 92.04443,-53.54878 5.31249,-5.15859 2.35687,-13.1815 3.25632,-19.69735 0.56841,-111.80554 -0.005,-223.61342 -0.0273,-335.41983 -4.13262,-5.44174 -11.35208,-7.47722 -16.77874,-11.44363 -94.45748,-55.55422 -189.32602,-110.41601 -284.42573,-164.8599 -2.45219,-1.18405 -4.986,-2.76964 -7.81069,-2.66968 z"
       id="path53"
       transform="scale(0.75)" />
    <path
       style="fill:#69bc9f;fill-opacity:1;stroke:#69bc9f;stroke-width:1.43989;stroke-dasharray:none;stroke-opacity:1"
       d="M 316.8228,888.13446 316.68667,763.03357 208.9646,700.79962 c -59.24713,-34.22866 -107.93641,-62.3195 -108.1984,-62.42408 -0.45378,-0.18114 1.03696,-3.65231 1.56853,-3.65231 0.13999,0 48.90101,28.08767 108.35784,62.41704 105.57049,60.95461 108.13555,62.39822 109.47853,61.61413 12.03318,-7.02543 214.30182,-123.691 214.75799,-123.86924 0.55595,-0.21722 2.69839,2.95679 2.23615,3.31284 -0.65076,0.50127 -214.95034,124.04398 -215.60457,124.29503 -0.73581,0.28236 -0.8243,13.75762 -0.8243,125.52932 v 125.21295 h -1.88872 -1.88871 z"
       id="path54"
       transform="scale(0.75)" />
    <path
       style="fill:#69bc9f;fill-opacity:1;stroke:#69bc9f;stroke-width:0.509079;stroke-dasharray:none;stroke-opacity:1"
       d="m 558.63268,1116.7836 c -0.55255,-0.1488 -1.3559,-0.4402 -1.78522,-0.6476 -2.31992,-1.1209 -192.54625,-111.1241 -193.11749,-111.6751 -0.96712,-0.9329 -1.38354,-1.9712 -1.38853,-3.462 -0.005,-1.49856 0.63514,-2.97531 1.61316,-3.72128 0.66306,-0.50574 52.40649,-30.42864 54.50865,-31.52201 1.32295,-0.68809 3.36495,-1.20265 4.77262,-1.20265 1.3871,0 3.39926,0.50991 4.75326,1.20455 2.78796,1.43029 192.20419,110.91159 192.71414,111.38749 1.91995,1.7916 1.90868,5.323 -0.0228,7.1371 -0.48037,0.4512 -52.20416,30.4223 -54.65592,31.6701 -2.16188,1.1003 -5.14643,1.436 -7.39189,0.8314 z"
       id="path55"
       transform="scale(0.75)" />
  </g>
</svg>
