<?xml version="1.0" encoding="UTF-8" standalone="no"?>
<!-- Created with Inkscape (http://www.inkscape.org/) -->

<svg
   width="206mm"
   height="95.533997mm"
   viewBox="0 0 206 95.533997"
   version="1.1"
   id="svg1"
   sodipodi:docname="LOGO-SVG-GIF-4.svg"
   inkscape:version="1.4.4 (dcaf3e7, 2026-05-05)"
   xmlns:inkscape="http://www.inkscape.org/namespaces/inkscape"
   xmlns:sodipodi="http://sodipodi.sourceforge.net/DTD/sodipodi-0.dtd"
   xmlns="http://www.w3.org/2000/svg"
   xmlns:svg="http://www.w3.org/2000/svg">
  <sodipodi:namedview
     id="namedview1"
     pagecolor="#ffffff"
     bordercolor="#000000"
     borderopacity="0.25"
     inkscape:showpageshadow="2"
     inkscape:pageopacity="0.0"
     inkscape:pagecheckerboard="0"
     inkscape:deskcolor="#d1d1d1"
     inkscape:document-units="mm"
     inkscape:zoom="1.01"
     inkscape:cx="239.10891"
     inkscape:cy="338.11881"
     inkscape:window-width="2880"
     inkscape:window-height="1514"
     inkscape:window-x="2869"
     inkscape:window-y="-11"
     inkscape:window-maximized="1"
     inkscape:current-layer="g40" />
  <defs
     id="defs1" />
  <g
     inkscape:label="Ebene 1"
     inkscape:groupmode="layer"
     id="layer1">
    <g
       transform="matrix(0.1800768,0,0,0.18007686,-14.944805,-17.038248)"
       id="g40">
      <g
         transform="translate(5.5531862,3.5342671e-5)"
         id="g47">
        <g
           id="g44">
          <g
             id="g43">
            <g
               id="g42">
              <path
                 d="M 10.2441,658.335 218.42,778.526"
                 stroke="#013e3c"
                 stroke-width="1.85983"
                 stroke-linecap="round"
                 stroke-linejoin="round"
                 fill="#013e3c"
                 fill-rule="evenodd"
                 transform="matrix(1.00112,0,0,1,765,-170.982)"
                 id="path1-8" />
              <path
                 d="m 6.33841,651.571 c 0,2.889 1.57136,5.413 3.90549,6.765"
                 stroke="#013e3c"
                 stroke-width="1.85983"
                 stroke-linecap="round"
                 stroke-linejoin="round"
                 fill="#013e3c"
                 fill-rule="evenodd"
                 transform="matrix(1.00112,0,0,1,765,-170.982)"
                 id="path2-7" />
              <path
                 d="M 6.33841,411.189 V 651.571"
                 stroke="#013e3c"
                 stroke-width="1.85983"
                 stroke-linecap="round"
                 stroke-linejoin="round"
                 fill="none"
                 fill-rule="evenodd"
                 transform="matrix(1.00112,0,0,1,765,-170.982)"
                 id="path3-4" />
              <path
                 d="m 10.2439,404.424 c -2.33413,1.352 -3.90549,3.876 -3.90549,6.765"
                 stroke="#013e3c"
                 stroke-width="1.85983"
                 stroke-linecap="round"
                 stroke-linejoin="round"
                 fill="#013e3c"
                 fill-rule="evenodd"
                 transform="matrix(1.00112,0,0,1,765,-170.982)"
                 id="path4-2" />
              <path
                 d="m 226.232,284.234 c -1.149,-0.665 -2.484,-1.046 -3.907,-1.046 -1.422,0 -2.756,0.381 -3.905,1.046"
                 stroke="#013e3c"
                 stroke-width="1.85983"
                 stroke-linecap="round"
                 stroke-linejoin="round"
                 fill="#013e3c"
                 fill-rule="evenodd"
                 transform="matrix(1.00112,0,0,1,765,-170.982)"
                 id="path5-7" />
              <path
                 d="m 438.313,411.189 c 0,-2.889 -1.571,-5.413 -3.905,-6.765"
                 stroke="#013e3c"
                 stroke-width="1.85983"
                 stroke-linecap="round"
                 stroke-linejoin="round"
                 fill="#013e3c"
                 fill-rule="evenodd"
                 transform="matrix(1.00112,0,0,1,765,-170.982)"
                 id="path6-7" />
              <path
                 d="m 434.408,658.336 c 2.334,-1.352 3.905,-3.876 3.905,-6.765"
                 stroke="#013e3c"
                 stroke-width="1.85983"
                 stroke-linecap="round"
                 stroke-linejoin="round"
                 fill="#013e3c"
                 fill-rule="evenodd"
                 transform="matrix(1.00112,0,0,1,765,-170.982)"
                 id="path7-9" />
              <path
                 d="m 365.47,698.137 68.938,-39.802"
                 stroke="#013e3c"
                 stroke-width="1.85983"
                 stroke-linecap="round"
                 stroke-linejoin="round"
                 fill="#013e3c"
                 fill-rule="evenodd"
                 transform="matrix(1.00112,0,0,1,765,-170.982)"
                 id="path8-3" />
              <path
                 d="m 357.659,698.137 c 1.149,0.665 2.483,1.046 3.905,1.046 1.423,0 2.758,-0.381 3.906,-1.046"
                 stroke="#013e3c"
                 stroke-width="1.85983"
                 stroke-linecap="round"
                 stroke-linejoin="round"
                 fill="#013e3c"
                 fill-rule="evenodd"
                 transform="matrix(1.00112,0,0,1,765,-170.982)"
                 id="path9-1" />
              <path
                 d="m 320.555,676.715 37.104,21.422"
                 stroke="#013e3c"
                 stroke-width="1.85983"
                 stroke-linecap="round"
                 stroke-linejoin="round"
                 fill="#013e3c"
                 fill-rule="evenodd"
                 transform="matrix(1.00112,0,0,1,765,-170.982)"
                 id="path10-9" />
              <path
                 d="m 320.555,669.95 c -1.167,0.675 -1.953,1.938 -1.953,3.382 0,1.445 0.786,2.707 1.953,3.383"
                 stroke="#013e3c"
                 stroke-width="1.85983"
                 stroke-linecap="round"
                 stroke-linejoin="round"
                 fill="#013e3c"
                 fill-rule="evenodd"
                 transform="matrix(1.00112,0,0,1,765,-170.982)"
                 id="path11-8" />
              <path
                 d="M 320.555,669.95 387.54,631.276"
                 stroke="#013e3c"
                 stroke-width="1.85983"
                 stroke-linecap="round"
                 stroke-linejoin="round"
                 fill="#013e3c"
                 fill-rule="evenodd"
                 transform="matrix(1.00112,0,0,1,765,-170.982)"
                 id="path12-6" />
              <path
                 d="m 387.54,631.276 c 2.334,-1.351 3.905,-3.875 3.905,-6.765"
                 stroke="#013e3c"
                 stroke-width="1.85983"
                 stroke-linecap="round"
                 stroke-linejoin="round"
                 fill="#013e3c"
                 fill-rule="evenodd"
                 transform="matrix(1.00112,0,0,1,765,-170.982)"
                 id="path13-5" />
              <path
                 d="M 391.445,624.511 V 438.249"
                 stroke="#013e3c"
                 stroke-width="1.85983"
                 stroke-linecap="round"
                 stroke-linejoin="round"
                 fill="none"
                 fill-rule="evenodd"
                 transform="matrix(1.00112,0,0,1,765,-170.982)"
                 id="path14-0" />
              <path
                 d="m 391.445,438.249 c 0,-2.889 -1.571,-5.414 -3.905,-6.765"
                 stroke="#013e3c"
                 stroke-width="1.85983"
                 stroke-linecap="round"
                 stroke-linejoin="round"
                 fill="#013e3c"
                 fill-rule="evenodd"
                 transform="matrix(1.00112,0,0,1,765,-170.982)"
                 id="path15-2" />
              <path
                 d="M 387.54,431.484 226.231,338.353"
                 stroke="#013e3c"
                 stroke-width="1.85983"
                 stroke-linecap="round"
                 stroke-linejoin="round"
                 fill="#013e3c"
                 fill-rule="evenodd"
                 transform="matrix(1.00112,0,0,1,765,-170.982)"
                 id="path16-8" />
              <path
                 d="m 226.232,338.353 c -1.149,-0.666 -2.484,-1.046 -3.907,-1.046 -1.422,0 -2.756,0.38 -3.905,1.046"
                 stroke="#013e3c"
                 stroke-width="1.85983"
                 stroke-linecap="round"
                 stroke-linejoin="round"
                 fill="#013e3c"
                 fill-rule="evenodd"
                 transform="matrix(1.00112,0,0,1,765,-170.982)"
                 id="path17-6" />
              <path
                 d="M 218.42,338.353 57.1118,431.484"
                 stroke="#013e3c"
                 stroke-width="1.85983"
                 stroke-linecap="round"
                 stroke-linejoin="round"
                 fill="#013e3c"
                 fill-rule="evenodd"
                 transform="matrix(1.00112,0,0,1,765,-170.982)"
                 id="path18-0" />
              <path
                 d="m 57.1116,431.484 c -2.334,1.351 -3.9054,3.876 -3.9054,6.765"
                 stroke="#013e3c"
                 stroke-width="1.85983"
                 stroke-linecap="round"
                 stroke-linejoin="round"
                 fill="#013e3c"
                 fill-rule="evenodd"
                 transform="matrix(1.00112,0,0,1,765,-170.982)"
                 id="path19-2" />
              <path
                 d="M 53.2062,438.249 V 624.511"
                 stroke="#013e3c"
                 stroke-width="1.85983"
                 stroke-linecap="round"
                 stroke-linejoin="round"
                 fill="none"
                 fill-rule="evenodd"
                 transform="matrix(1.00112,0,0,1,765,-170.982)"
                 id="path20-4" />
              <path
                 d="m 53.2062,624.511 c 0,2.89 1.5714,5.414 3.9054,6.765"
                 stroke="#013e3c"
                 stroke-width="1.85983"
                 stroke-linecap="round"
                 stroke-linejoin="round"
                 fill="#013e3c"
                 fill-rule="evenodd"
                 transform="matrix(1.00112,0,0,1,765,-170.982)"
                 id="path21-8" />
              <path
                 d="m 218.42,724.408 c 1.149,0.665 2.483,1.047 3.905,1.047 1.423,0 2.758,-0.382 3.907,-1.047"
                 stroke="#013e3c"
                 stroke-width="1.85983"
                 stroke-linecap="round"
                 stroke-linejoin="round"
                 fill="#013e3c"
                 fill-rule="evenodd"
                 transform="matrix(1.00112,0,0,1,765,-170.982)"
                 id="path22-6" />
              <path
                 d="m 226.231,724.408 22.07,-12.742"
                 stroke="#013e3c"
                 stroke-width="1.85983"
                 stroke-linecap="round"
                 stroke-linejoin="round"
                 fill="#013e3c"
                 fill-rule="evenodd"
                 transform="matrix(1.00112,0,0,1,765,-170.982)"
                 id="path23-5" />
              <path
                 d="m 256.112,711.666 c -1.149,-0.666 -2.483,-1.046 -3.906,-1.046 -1.422,0 -2.756,0.38 -3.905,1.046"
                 stroke="#013e3c"
                 stroke-width="1.85983"
                 stroke-linecap="round"
                 stroke-linejoin="round"
                 fill="#013e3c"
                 fill-rule="evenodd"
                 transform="matrix(1.00112,0,0,1,765,-170.982)"
                 id="path24-0" />
              <path
                 d="m 256.112,711.666 37.104,21.421"
                 stroke="#013e3c"
                 stroke-width="1.85983"
                 stroke-linecap="round"
                 stroke-linejoin="round"
                 fill="#013e3c"
                 fill-rule="evenodd"
                 transform="matrix(1.00112,0,0,1,765,-170.982)"
                 id="path25-9" />
              <path
                 d="m 293.216,739.853 c 1.167,-0.676 1.952,-1.938 1.952,-3.383 0,-1.445 -0.785,-2.707 -1.952,-3.383"
                 stroke="#013e3c"
                 stroke-width="1.85983"
                 stroke-linecap="round"
                 stroke-linejoin="round"
                 fill="#013e3c"
                 fill-rule="evenodd"
                 transform="matrix(1.00112,0,0,1,765,-170.982)"
                 id="path26-0" />
              <path
                 d="m 226.231,778.526 66.985,-38.673"
                 stroke="#013e3c"
                 stroke-width="1.85983"
                 stroke-linecap="round"
                 stroke-linejoin="round"
                 fill="#013e3c"
                 fill-rule="evenodd"
                 transform="matrix(1.00112,0,0,1,765,-170.982)"
                 id="path27-0" />
              <path
                 d="M 434.408,404.425 226.231,284.234"
                 stroke="#013e3c"
                 stroke-width="1.85983"
                 stroke-linecap="round"
                 stroke-linejoin="round"
                 fill="#013e3c"
                 fill-rule="evenodd"
                 transform="matrix(1.00112,0,0,1,765,-170.982)"
                 id="path28-6" />
              <path
                 d="M 218.42,284.234 10.2441,404.425"
                 stroke="#013e3c"
                 stroke-width="1.85983"
                 stroke-linecap="round"
                 stroke-linejoin="round"
                 fill="#013e3c"
                 fill-rule="evenodd"
                 transform="matrix(1.00112,0,0,1,765,-170.982)"
                 id="path29-1" />
              <path
                 d="M 438.313,651.571 V 411.189"
                 stroke="#013e3c"
                 stroke-width="1.85983"
                 stroke-linecap="round"
                 stroke-linejoin="round"
                 fill="none"
                 fill-rule="evenodd"
                 transform="matrix(1.00112,0,0,1,765,-170.982)"
                 id="path30-3" />
              <path
                 d="M 57.1118,631.276 218.42,724.408"
                 stroke="#013e3c"
                 stroke-width="1.85983"
                 stroke-linecap="round"
                 stroke-linejoin="round"
                 fill="#013e3c"
                 fill-rule="evenodd"
                 transform="matrix(1.00112,0,0,1,765,-170.982)"
                 id="path31-8" />
              <path
                 d="M 220.372,532.508 V 707.134"
                 stroke="#69bc9f"
                 stroke-width="0.790795"
                 stroke-linecap="round"
                 stroke-linejoin="round"
                 fill="none"
                 fill-rule="evenodd"
                 transform="matrix(1.00112,0,0,1,765,-170.982)"
                 id="path32-9" />
              <path
                 d="M 222.325,529.125 373.557,441.812"
                 stroke="#69bc9f"
                 stroke-width="0.790795"
                 stroke-linecap="round"
                 stroke-linejoin="round"
                 fill="#69bc9f"
                 fill-rule="evenodd"
                 transform="matrix(1.00112,0,0,1,765,-170.982)"
                 id="path33-3" />
              <path
                 d="m 373.557,441.812 1.953,3.383"
                 stroke="#69bc9f"
                 stroke-width="0.790795"
                 stroke-linecap="round"
                 stroke-linejoin="round"
                 fill="#69bc9f"
                 fill-rule="evenodd"
                 transform="matrix(1.00112,0,0,1,765,-170.982)"
                 id="path34-4" />
              <path
                 d="M 224.278,532.508 375.51,445.195"
                 stroke="#69bc9f"
                 stroke-width="0.790795"
                 stroke-linecap="round"
                 stroke-linejoin="round"
                 fill="#69bc9f"
                 fill-rule="evenodd"
                 transform="matrix(1.00112,0,0,1,765,-170.982)"
                 id="path35-4" />
              <path
                 d="M 224.278,532.508 V 707.134"
                 stroke="#69bc9f"
                 stroke-width="0.790795"
                 stroke-linecap="round"
                 stroke-linejoin="round"
                 fill="none"
                 fill-rule="evenodd"
                 transform="matrix(1.00112,0,0,1,765,-170.982)"
                 id="path36" />
              <path
                 d="M 222.325,529.125 71.0945,441.812"
                 stroke="#69bc9f"
                 stroke-width="0.790795"
                 stroke-linecap="round"
                 stroke-linejoin="round"
                 fill="#69bc9f"
                 fill-rule="evenodd"
                 transform="matrix(1.00112,0,0,1,765,-170.982)"
                 id="path37" />
              <path
                 d="m 69.1417,445.195 1.9528,-3.383"
                 stroke="#69bc9f"
                 stroke-width="0.790795"
                 stroke-linecap="round"
                 stroke-linejoin="round"
                 fill="#69bc9f"
                 fill-rule="evenodd"
                 transform="matrix(1.00112,0,0,1,765,-170.982)"
                 id="path38" />
              <path
                 d="M 220.372,532.508 69.1417,445.195"
                 stroke="#69bc9f"
                 stroke-width="0.790795"
                 stroke-linecap="round"
                 stroke-linejoin="round"
                 fill="#69bc9f"
                 fill-rule="evenodd"
                 transform="matrix(1.00112,0,0,1,765,-170.982)"
                 id="path39" />
              <path
                 d="m 224.278,707.134 h -3.906"
                 stroke="#69bc9f"
                 stroke-width="0.790795"
                 stroke-linecap="round"
                 stroke-linejoin="round"
                 fill="none"
                 fill-rule="evenodd"
                 transform="matrix(1.00112,0,0,1,765,-170.982)"
                 id="path40" />
              <path
                 d="m 221.993,284.008 c -5.622,1.82 -10.464,5.705 -15.762,8.355 C 140.587,330.02 74.94,367.679 9.60614,405.872 6.456,408.154 7.943,412.917 7.31252,416.248 c -0.7448,49.246 -0.23713,98.504 -0.38644,147.755 0.16756,29.361 -0.33441,58.739 0.49358,88.09 0.10192,5.903 7.03134,7.16 10.90484,10.03 66.5595,38.398 133.0255,76.965 199.6915,115.173 3.005,2.135 6.856,1.767 9.669,-0.497 22.096,-12.597 44.165,-25.269 65.898,-38.48 2.774,-3.031 -2.03,-5.227 -4.203,-6.454 -11.721,-6.821 -23.271,-14.023 -35.323,-20.222 -3.796,-1.277 -7.024,2.38 -10.363,3.629 -6.77,3.569 -13.192,8.011 -20.334,10.757 -5.003,0.262 -8.773,-3.918 -13.14,-5.781 -50.209,-28.703 -100.442,-57.377 -150.183,-86.884 -3.162,-2.073 -8.2945,-3.883 -7.0502,-8.652 0.0367,-59.284 -0.4267,-118.57 -0.0402,-177.853 0.4765,-4.751 -0.5656,-10.097 1.682,-14.436 39.1416,-23.177 78.6884,-45.705 118.0394,-68.539 15.401,-8.741 30.571,-17.92 46.141,-26.345 6.346,-2.668 11.709,3.01 17.012,5.529 50.854,29.331 101.773,58.561 152.475,88.148 4.678,2.737 3.036,8.703 3.484,13.164 0.292,61.175 -0.072,122.352 -0.07,183.528 -3.391,4.554 -9.216,6.454 -13.768,9.655 -19.182,11.438 -38.83,22.162 -57.84,33.845 -1.655,2.504 0.403,5.091 2.914,5.783 12.29,6.986 24.225,14.699 36.944,20.874 4.084,0.956 7.499,-2.863 11.104,-4.216 21.555,-12.17 43.116,-24.373 64.195,-37.347 3.706,-3.597 1.644,-9.193 2.272,-13.737 0.396,-77.978 -0.004,-155.957 -0.019,-233.935 -2.883,-3.795 -7.918,-5.215 -11.703,-7.981 C 359.931,362.104 293.766,323.841 227.44,285.87 c -1.71,-0.826 -3.477,-1.932 -5.447,-1.862 z"
                 stroke="#013e3c"
                 stroke-width="0.532576"
                 fill="#013e3c"
                 fill-rule="evenodd"
                 transform="matrix(1.00112,0,0,1,765,-170.982)"
                 id="path41" />
              <path
                 d="m 220.964,619.418 -0.095,-87.25 -75.129,-43.404 C 104.419,464.891 70.4608,445.3 70.2781,445.227 c -0.3165,-0.126 0.7232,-2.547 1.094,-2.547 0.0976,0 34.1049,19.589 75.5729,43.532 73.629,42.512 75.418,43.518 76.354,42.972 8.393,-4.9 149.462,-86.267 149.78,-86.391 0.388,-0.152 1.882,2.062 1.56,2.31 -0.454,0.35 -149.914,86.513 -150.371,86.688 -0.513,0.197 -0.575,9.595 -0.575,87.549 v 87.328 h -1.317 -1.317 z"
                 stroke="#69bc9f"
                 stroke-width="1.00423"
                 fill="#69bc9f"
                 fill-rule="evenodd"
                 transform="matrix(1.00112,0,0,1,765,-170.982)"
                 id="path42" />
            </g>
          </g>
        </g>
        <text
           fill="#69bc9f"
           font-family="'Agency FB', 'Agency FB_MSFontService', sans-serif"
           font-weight="700"
           font-stretch="condensed"
           font-size="319px"
           transform="translate(80.0791,484)"
           id="text44">ST</text>
        <text
           fill="#013e3c"
           font-family="'Agency FB', 'Agency FB_MSFontService', sans-serif"
           font-weight="700"
           font-stretch="condensed"
           font-size="319px"
           transform="translate(366.079,484)"
           id="text45">E</text>
        <text
           fill="#69bc9f"
           font-family="'Agency FB', 'Agency FB_MSFontService', sans-serif"
           font-weight="700"
           font-stretch="condensed"
           font-size="319px"
           transform="translate(499.912,484)"
           id="text46">P</text>
        <text
           fill="#69bc9f"
           font-family="'Agency FB', 'Agency FB_MSFontService', sans-serif"
           font-weight="700"
           font-stretch="condensed"
           font-size="319px"
           transform="translate(651.412,484)"
           id="text47">-</text>
      </g>
    </g>
  </g>
</svg>
